<svg xmlns="http://www.w3.org/2000/svg" viewBox="0 0 32 40" x="0px" y="0px"><title>business, office, file, work, Contact</title><g data-name="Layer 1"><path d="M17,14a4,4,0,1,0-4-4A4,4,0,0,0,17,14Zm0-6a2,2,0,1,1-2,2A2,2,0,0,1,17,8ZM28,2H6A1,1,0,0,0,5,3V6H3A1,1,0,0,0,3,8H5v7H3a1,1,0,0,0,0,2H5v7H3a1,1,0,0,0,0,2H5v3a1,1,0,0,0,1,1H28a1,1,0,0,0,1-1V3A1,1,0,0,0,28,2ZM27,28H7V26H8a1,1,0,0,0,0-2H7V17H8a1,1,0,0,0,0-2H7V8H8A1,1,0,0,0,8,6H7V4H27ZM10,25V22a7,7,0,0,1,14,0v3a1,1,0,0,1-2,0V22a5,5,0,0,0-10,0v3a1,1,0,0,1-2,0Z"/></g></svg>